<?xml version="1.0" standalone="no"?>
<!DOCTYPE svg PUBLIC "-//W3C//DTD SVG 20010904//EN"
 "http://www.w3.org/TR/2001/REC-SVG-20010904/DTD/svg10.dtd">
<svg version="1.0" xmlns="http://www.w3.org/2000/svg"
 width="86.000000pt" height="86.000000pt" viewBox="0 0 86.000000 86.000000"
 preserveAspectRatio="xMidYMid meet">
<metadata>
Created by potrace 1.11, written by Peter Selinger 2001-2013
</metadata>
<g transform="translate(0.000000,86.000000) scale(0.100000,-0.100000)"
fill="#000000" stroke="none">
<path d="M357 850 c-222 -39 -383 -262 -348 -481 38 -233 257 -396 482 -360
282 46 442 341 324 598 -79 174 -271 276 -458 243z m224 -92 c76 -35 129 -85
170 -160 32 -60 34 -68 34 -163 0 -93 -2 -105 -33 -167 -38 -77 -92 -130 -171
-167 -49 -23 -69 -26 -156 -26 -95 0 -103 2 -163 34 -75 41 -125 94 -161 170
-23 49 -26 69 -26 156 0 90 3 105 28 152 49 94 115 153 215 190 61 22 196 13
263 -19z"/>
<path d="M392 563 c-57 -64 -100 -119 -95 -123 4 -3 37 -15 73 -25 36 -10 66
-19 68 -20 1 -1 -13 -44 -33 -94 -19 -51 -35 -96 -35 -99 0 -4 47 40 105 98
58 58 105 107 105 111 0 3 -33 16 -74 29 l-74 23 34 101 c19 55 33 104 32 108
-2 3 -49 -45 -106 -109z"/>
</g>
</svg>
