<?xml version="1.0" encoding="utf-8"?>
<!-- Generator: Adobe Illustrator 19.1.0, SVG Export Plug-In . SVG Version: 6.00 Build 0)  -->
<svg version="1.1" id="Layer_1" xmlns="http://www.w3.org/2000/svg" xmlns:xlink="http://www.w3.org/1999/xlink" x="0px" y="0px"
	 viewBox="0 0 25.6 25.6" style="enable-background:new 0 0 25.6 25.6;" xml:space="preserve">
<style type="text/css">
	.st0{fill-rule:evenodd;clip-rule:evenodd;fill:#FFFFFF;}
</style>
<g>
	<path class="st0" d="M23.2,0H5.6C4.3,0,3.2,1.1,3.2,2.4V4H2.4C1.1,4,0,5.1,0,6.4v16c0,1.8,1.4,3.2,3.2,3.2h19.2
		c1.8,0,3.2-1.4,3.2-3.2v-20C25.6,1.1,24.5,0,23.2,0L23.2,0z M24,22.4c0,0.9-0.7,1.6-1.6,1.6H3.2c-0.9,0-1.6-0.7-1.6-1.6v-16
		C1.6,6,2,5.6,2.4,5.6h0.8v16c0,0.4,0.4,0.8,0.8,0.8c0.4,0,0.8-0.4,0.8-0.8V2.4c0-0.4,0.4-0.8,0.8-0.8h17.6C23.6,1.6,24,2,24,2.4
		V22.4z M24,22.4"/>
	<path class="st0" d="M15.6,10.4H22c0.2,0,0.4-0.2,0.4-0.4S22.2,9.6,22,9.6h-6.4c-0.2,0-0.4,0.2-0.4,0.4S15.4,10.4,15.6,10.4
		L15.6,10.4z M15.6,10.4"/>
	<path class="st0" d="M15.6,8H22c0.2,0,0.4-0.2,0.4-0.4c0-0.2-0.2-0.4-0.4-0.4h-6.4c-0.2,0-0.4,0.2-0.4,0.4C15.2,7.8,15.4,8,15.6,8
		L15.6,8z M15.6,8"/>
	<path class="st0" d="M15.6,5.6H22c0.2,0,0.4-0.2,0.4-0.4c0-0.2-0.2-0.4-0.4-0.4h-6.4c-0.2,0-0.4,0.2-0.4,0.4
		C15.2,5.4,15.4,5.6,15.6,5.6L15.6,5.6z M15.6,5.6"/>
	<path class="st0" d="M13.2,21.6H6.8c-0.2,0-0.4,0.2-0.4,0.4s0.2,0.4,0.4,0.4h6.4c0.2,0,0.4-0.2,0.4-0.4S13.4,21.6,13.2,21.6
		L13.2,21.6z M13.2,21.6"/>
	<path class="st0" d="M13.2,19.2H6.8c-0.2,0-0.4,0.2-0.4,0.4c0,0.2,0.2,0.4,0.4,0.4h6.4c0.2,0,0.4-0.2,0.4-0.4
		C13.6,19.4,13.4,19.2,13.2,19.2L13.2,19.2z M13.2,19.2"/>
	<path class="st0" d="M13.2,16.8H6.8c-0.2,0-0.4,0.2-0.4,0.4c0,0.2,0.2,0.4,0.4,0.4h6.4c0.2,0,0.4-0.2,0.4-0.4
		C13.6,17,13.4,16.8,13.2,16.8L13.2,16.8z M13.2,16.8"/>
	<path class="st0" d="M22,21.6h-6.4c-0.2,0-0.4,0.2-0.4,0.4s0.2,0.4,0.4,0.4H22c0.2,0,0.4-0.2,0.4-0.4S22.2,21.6,22,21.6L22,21.6z
		 M22,21.6"/>
	<path class="st0" d="M22,19.2h-6.4c-0.2,0-0.4,0.2-0.4,0.4c0,0.2,0.2,0.4,0.4,0.4H22c0.2,0,0.4-0.2,0.4-0.4
		C22.4,19.4,22.2,19.2,22,19.2L22,19.2z M22,19.2"/>
	<path class="st0" d="M22,16.8h-6.4c-0.2,0-0.4,0.2-0.4,0.4c0,0.2,0.2,0.4,0.4,0.4H22c0.2,0,0.4-0.2,0.4-0.4
		C22.4,17,22.2,16.8,22,16.8L22,16.8z M22,16.8"/>
	<path class="st0" d="M22,12H6.8c-0.2,0-0.4,0.2-0.4,0.4c0,0.2,0.2,0.4,0.4,0.4H22c0.2,0,0.4-0.2,0.4-0.4C22.4,12.2,22.2,12,22,12
		L22,12z M22,12"/>
	<path class="st0" d="M22,14.4H6.8c-0.2,0-0.4,0.2-0.4,0.4c0,0.2,0.2,0.4,0.4,0.4H22c0.2,0,0.4-0.2,0.4-0.4
		C22.4,14.6,22.2,14.4,22,14.4L22,14.4z M22,14.4"/>
	<path class="st0" d="M7.2,10.4h5.6c0.4,0,0.8-0.4,0.8-0.8V4c0-0.4-0.4-0.8-0.8-0.8H7.2C6.8,3.2,6.4,3.6,6.4,4v5.6
		C6.4,10,6.8,10.4,7.2,10.4L7.2,10.4z M8,4.8h4v4H8V4.8z M8,4.8"/>
</g>
</svg>
