<?xml version="1.0" encoding="utf-8"?>
<!-- Generator: Adobe Illustrator 19.1.0, SVG Export Plug-In . SVG Version: 6.00 Build 0)  -->
<svg version="1.1" id="Layer_1" xmlns="http://www.w3.org/2000/svg" xmlns:xlink="http://www.w3.org/1999/xlink" x="0px" y="0px"
	 viewBox="0 0 296 290.5" style="enable-background:new 0 0 296 290.5;" xml:space="preserve">
<style type="text/css">
	.st0{fill:#FFFFFF;}
</style>
<g>
	<g>
		<path class="st0" d="M251.9,37.4C224,13.3,187.1,0,148,0S72,13.3,44.1,37.4C15.7,62.1,0,95.1,0,130.3c0,34.5,15.4,67.3,42.6,91.6
			c-12.6,21.9-33.8,42.4-34,42.6C4,269,2.6,275.8,5.3,281.7c2.5,5.4,7.9,8.9,13.8,8.9c0.4,0,0.9,0,1.3-0.1
			c2.5-0.2,61.1-5.5,112-30.5c5.2,0.5,10.5,0.7,15.7,0.7c39.1,0,76-13.3,103.9-37.4c28.5-24.7,44.1-57.7,44.1-92.9
			C296,95.1,280.3,62.1,251.9,37.4L251.9,37.4z M72.5,145.3c-12.6,0-22.8-10.2-22.8-22.8c0-12.6,10.2-22.8,22.8-22.8
			c12.6,0,22.8,10.2,22.8,22.8C95.3,135,85.1,145.3,72.5,145.3L72.5,145.3z M148,145.3c-12.6,0-22.8-10.2-22.8-22.8
			c0-12.6,10.2-22.8,22.8-22.8s22.8,10.2,22.8,22.8C170.8,135,160.6,145.3,148,145.3L148,145.3z M223.5,145.3
			c-12.6,0-22.8-10.2-22.8-22.8c0-12.6,10.2-22.8,22.8-22.8c12.6,0,22.8,10.2,22.8,22.8C246.4,135,236.1,145.3,223.5,145.3
			L223.5,145.3z M223.5,145.3"/>
	</g>
</g>
</svg>
