<?xml version="1.0" encoding="utf-8"?>
<!-- Generator: Adobe Illustrator 19.1.0, SVG Export Plug-In . SVG Version: 6.00 Build 0)  -->
<svg version="1.1" id="Layer_1" xmlns="http://www.w3.org/2000/svg" xmlns:xlink="http://www.w3.org/1999/xlink" x="0px" y="0px"
	 viewBox="0 0 25.6 25.6" style="enable-background:new 0 0 25.6 25.6;" xml:space="preserve">
<style type="text/css">
	.st0{fill-rule:evenodd;clip-rule:evenodd;fill:#9AC23C;}
</style>
<g>
	<path class="st0" d="M11.6,7.5L11.6,7.5c-0.2-0.2-0.5-0.3-0.8-0.3c-0.7,0-1.2,0.5-1.2,1.2c0,0.4,0.2,0.7,0.4,0.9l0,0l3.8,3.5
		L10,16.3l0,0c-0.2,0.2-0.4,0.5-0.4,0.9c0,0.7,0.5,1.2,1.2,1.2c0.3,0,0.6-0.1,0.8-0.3v0l4.8-4.4c0.2-0.2,0.4-0.5,0.4-0.9
		s-0.1-0.7-0.4-0.9L11.6,7.5z M12.8,0C5.7,0,0,5.7,0,12.8c0,7.1,5.7,12.8,12.8,12.8c7.1,0,12.8-5.7,12.8-12.8
		C25.6,5.7,19.9,0,12.8,0L12.8,0z M12.8,23.2c-5.7,0-10.4-4.7-10.4-10.4c0-5.7,4.7-10.4,10.4-10.4c5.7,0,10.4,4.7,10.4,10.4
		C23.2,18.5,18.5,23.2,12.8,23.2L12.8,23.2z M12.8,23.2"/>
</g>
</svg>
